<?xml version="1.0" encoding="utf-8"?>
<!-- Generator: Adobe Illustrator 19.2.0, SVG Export Plug-In . SVG Version: 6.00 Build 0)  -->
<svg version="1.1" id="Layer_1" xmlns="http://www.w3.org/2000/svg" xmlns:xlink="http://www.w3.org/1999/xlink" x="0px" y="0px"
	 viewBox="0 0 500 500" style="enable-background:new 0 0 500 500;" xml:space="preserve">
<style type="text/css">
	.st0{fill:#ECF4F7;}
	.st1{fill:#1C1D21;}
	.st2{fill:#83E1E5;}
	.st3{fill:#AAB1BA;}
	.st4{fill:none;stroke:#1C1D21;stroke-width:10;stroke-linecap:round;stroke-linejoin:round;stroke-miterlimit:10;}
	.st5{fill:#FDDF7F;}
	.st6{fill:#FFFFFF;}
</style>
<g>
	<g>
		<g>
			<g>
				<polygon class="st2" points="393.8,38.6 490.1,173 247.5,461.4 5,173 101.3,38.6 				"/>
			</g>
		</g>
		<g>
			<g>
				<polygon class="st5" points="5,173 101.3,38.6 393.8,38.6 490.1,173 				"/>
			</g>
		</g>
		<g>
			<g>
				<path class="st1" d="M247.5,466.4c-1.5,0-2.9-0.7-3.8-1.8L1.2,176.2c-1.5-1.7-1.6-4.3-0.2-6.1L97.2,35.7
					c0.9-1.3,2.5-2.1,4.1-2.1h292.5c1.6,0,3.1,0.8,4.1,2.1l96.3,134.4c1.3,1.9,1.2,4.4-0.2,6.1L251.4,464.6
					C250.4,465.7,249,466.4,247.5,466.4z M11.3,172.7l236.2,280.9l236.2-280.9L391.2,43.6H103.8L11.3,172.7z"/>
			</g>
		</g>
		<g>
			<g>
				<polygon class="st2" points="327.2,38.6 379.7,173 247.5,461.4 115.3,173 167.8,38.6 				"/>
			</g>
		</g>
		<g>
			<g>
				<polygon class="st5" points="247.5,461.4 115.3,173 167.8,38.6 247.5,38.6 				"/>
			</g>
		</g>
		<g>
			<g>
				<path class="st1" d="M247.5,466.4c-2,0-3.7-1.1-4.5-2.9L110.8,175.1c-0.6-1.2-0.6-2.6-0.1-3.9l52.5-134.4
					c0.7-1.9,2.6-3.2,4.7-3.2h159.5c2.1,0,3.9,1.3,4.7,3.2l52.5,134.4c0.5,1.3,0.5,2.7-0.1,3.9L252.1,463.5
					C251.3,465.3,249.5,466.4,247.5,466.4z M120.8,172.8l126.8,276.6l126.8-276.6L323.8,43.6H171.2L120.8,172.8z"/>
			</g>
		</g>
		<g>
			<g>
				<path class="st1" d="M490.1,178H247.5c-2.8,0-5-2.2-5-5c0-2.8,2.2-5,5-5h242.5c2.8,0,5,2.2,5,5C495.1,175.7,492.8,178,490.1,178
					z"/>
			</g>
		</g>
		<g>
			<g>
				<path class="st1" d="M210.9,178h-58.7c-2.8,0-5-2.2-5-5c0-2.8,2.2-5,5-5h58.7c2.8,0,5,2.2,5,5C215.9,175.7,213.7,178,210.9,178z
					"/>
			</g>
		</g>
		<g>
			<g>
				<path class="st1" d="M81.6,178H61.4c-2.8,0-5-2.2-5-5c0-2.8,2.2-5,5-5h20.1c2.8,0,5,2.2,5,5C86.6,175.7,84.3,178,81.6,178z"/>
			</g>
		</g>
		<g>
			<g>
				<path class="st1" d="M36.3,178h-3.5c-2.8,0-5-2.2-5-5c0-2.8,2.2-5,5-5h3.5c2.8,0,5,2.2,5,5C41.3,175.7,39.1,178,36.3,178z"/>
			</g>
		</g>
		<g>
			<g>
				<path class="st1" d="M247.5,66.4c-2.8,0-5-2.2-5-5V38.6c0-2.8,2.2-5,5-5c2.8,0,5,2.2,5,5v22.8C252.5,64.2,250.3,66.4,247.5,66.4
					z"/>
			</g>
		</g>
		<g>
			<g>
				<path class="st1" d="M247.5,178c-2.8,0-5-2.2-5-5V91.6c0-2.8,2.2-5,5-5c2.8,0,5,2.2,5,5V173C252.5,175.7,250.3,178,247.5,178z"
					/>
			</g>
		</g>
		<g>
			<g>
				<path class="st1" d="M247.5,406.5c-2.8,0-5-2.2-5-5v-17.8c0-2.8,2.2-5,5-5c2.8,0,5,2.2,5,5v17.8
					C252.5,404.2,250.3,406.5,247.5,406.5z"/>
			</g>
		</g>
		<g>
			<g>
				<path class="st1" d="M247.5,361.9c-2.8,0-5-2.2-5-5V212.4c0-2.8,2.2-5,5-5c2.8,0,5,2.2,5,5v144.5
					C252.5,359.7,250.3,361.9,247.5,361.9z"/>
			</g>
		</g>
	</g>
	<g>
		<g>
			<g>
				<path class="st1" d="M473,87.6c-2.8,0-5-2.2-5-5v-44c0-2.8,2.2-5,5-5c2.8,0,5,2.2,5,5v44C478,85.4,475.8,87.6,473,87.6z"/>
			</g>
		</g>
		<g>
			<g>
				<path class="st1" d="M495,65.6h-44c-2.8,0-5-2.2-5-5s2.2-5,5-5h44c2.8,0,5,2.2,5,5S497.8,65.6,495,65.6z"/>
			</g>
		</g>
	</g>
	<g>
		<g>
			<g>
				<path class="st1" d="M194.9,132.8c-2.8,0-5-2.2-5-5v-44c0-2.8,2.2-5,5-5c2.8,0,5,2.2,5,5v44
					C199.9,130.6,197.7,132.8,194.9,132.8z"/>
			</g>
		</g>
		<g>
			<g>
				<path class="st1" d="M216.9,110.8h-44c-2.8,0-5-2.2-5-5c0-2.8,2.2-5,5-5h44c2.8,0,5,2.2,5,5
					C221.9,108.6,219.7,110.8,216.9,110.8z"/>
			</g>
		</g>
	</g>
	<g>
		<g>
			<g>
				<path class="st1" d="M47.5,340.9c-2.8,0-5-2.2-5-5v-44c0-2.8,2.2-5,5-5s5,2.2,5,5v44C52.5,338.7,50.2,340.9,47.5,340.9z"/>
			</g>
		</g>
		<g>
			<g>
				<path class="st1" d="M69.5,318.9h-44c-2.8,0-5-2.2-5-5c0-2.8,2.2-5,5-5h44c2.8,0,5,2.2,5,5C74.5,316.7,72.3,318.9,69.5,318.9z"
					/>
			</g>
		</g>
	</g>
	<g>
		<g>
			<g>
				<path class="st1" d="M357.7,450.5c-2.8,0-5-2.2-5-5v-44c0-2.8,2.2-5,5-5c2.8,0,5,2.2,5,5v44
					C362.7,448.2,360.5,450.5,357.7,450.5z"/>
			</g>
		</g>
		<g>
			<g>
				<path class="st1" d="M379.7,428.5h-44c-2.8,0-5-2.2-5-5c0-2.8,2.2-5,5-5h44c2.8,0,5,2.2,5,5
					C384.7,426.2,382.5,428.5,379.7,428.5z"/>
			</g>
		</g>
	</g>
</g>
</svg>
